<?xml version="1.0" encoding="UTF-8" standalone="no"?>
<!DOCTYPE svg PUBLIC "-//W3C//DTD SVG 1.1//EN"
 "http://www.w3.org/Graphics/SVG/1.1/DTD/svg11.dtd">
<!-- Generated by graphviz version 2.26.3 (20100126.1600)
 -->
<!-- Title: G Pages: 1 -->
<svg width="241pt" height="194pt"
 viewBox="0.00 0.00 241.14 194.00" xmlns="http://www.w3.org/2000/svg" xmlns:xlink="http://www.w3.org/1999/xlink">
<g id="graph1" class="graph" transform="scale(1 1) rotate(0) translate(4 190)">
<title>G</title>
<polygon fill="white" stroke="white" points="-4,5 -4,-190 238.136,-190 238.136,5 -4,5"/>
<!-- Core -->
<g id="node1" class="node"><title>Core</title>
<ellipse fill="none" stroke="black" cx="145" cy="-167" rx="34.1461" ry="18.3848"/>
<text text-anchor="middle" x="145" y="-163.4" font-family="Times Roman,serif" font-size="14.00">Core</text>
</g>
<!-- UI -->
<g id="node3" class="node"><title>UI</title>
<ellipse fill="none" stroke="black" cx="27" cy="-93" rx="27" ry="18.3848"/>
<text text-anchor="middle" x="27" y="-89.4" font-family="Times Roman,serif" font-size="14.00">UI</text>
</g>
<!-- Core&#45;&#45;UI -->
<g id="edge2" class="edge"><title>Core&#45;&#45;UI</title>
<path fill="none" stroke="black" d="M122.527,-152.907C100.728,-139.236 67.9611,-118.687 47.0307,-105.562"/>
</g>
<!-- COMconnect -->
<g id="node5" class="node"><title>COMconnect</title>
<ellipse fill="none" stroke="black" cx="145" cy="-93" rx="73.0388" ry="18.3848"/>
<text text-anchor="middle" x="145" y="-89.4" font-family="Times Roman,serif" font-size="14.00">COMconnect</text>
</g>
<!-- Core&#45;&#45;COMconnect -->
<g id="edge4" class="edge"><title>Core&#45;&#45;COMconnect</title>
<path fill="none" stroke="black" d="M145,-148.327C145,-137.109 145,-122.884 145,-111.667"/>
</g>
<!-- AutoConfig -->
<g id="node7" class="node"><title>AutoConfig</title>
<ellipse fill="none" stroke="black" cx="136" cy="-19" rx="65.7609" ry="18.3848"/>
<text text-anchor="middle" x="136" y="-15.4" font-family="Times Roman,serif" font-size="14.00">AutoConfig</text>
</g>
<!-- Core&#45;&#45;AutoConfig -->
<g id="edge6" class="edge"><title>Core&#45;&#45;AutoConfig</title>
<path fill="none" stroke="black" d="M173.294,-156.399C192.241,-147.639 215.706,-133.175 227,-112 234.948,-97.0983 235.297,-88.7101 227,-74 216.389,-55.1881 196.469,-42.0832 177.966,-33.3981"/>
</g>
<!-- UI&#45;&#45;AutoConfig -->
<g id="edge8" class="edge"><title>UI&#45;&#45;AutoConfig</title>
<path fill="none" stroke="black" d="M46.2361,-79.9406C64.2044,-67.742 91.1348,-49.4589 110.81,-36.1013"/>
</g>
</g>
</svg>
