<?xml version="1.0" encoding="UTF-8" standalone="no"?>
<!-- Created with Inkscape (http://www.inkscape.org/) -->

<svg
   xmlns:dc="http://purl.org/dc/elements/1.1/"
   xmlns:cc="http://creativecommons.org/ns#"
   xmlns:rdf="http://www.w3.org/1999/02/22-rdf-syntax-ns#"
   xmlns:svg="http://www.w3.org/2000/svg"
   xmlns="http://www.w3.org/2000/svg"
   xmlns:sodipodi="http://sodipodi.sourceforge.net/DTD/sodipodi-0.dtd"
   xmlns:inkscape="http://www.inkscape.org/namespaces/inkscape"
   width="744.09448819"
   height="1052.3622047"
   id="svg2"
   version="1.1"
   inkscape:version="0.48.2 r9819"
   sodipodi:docname="rotation-v2.svg">
  <defs
     id="defs4" />
  <sodipodi:namedview
     id="base"
     pagecolor="#ffffff"
     bordercolor="#666666"
     borderopacity="1.0"
     inkscape:pageopacity="0.0"
     inkscape:pageshadow="2"
     inkscape:zoom="1.4"
     inkscape:cx="307.51649"
     inkscape:cy="630.6493"
     inkscape:document-units="px"
     inkscape:current-layer="layer1"
     showgrid="true"
     inkscape:snap-global="true"
     inkscape:object-paths="true"
     inkscape:snap-bbox="true"
     inkscape:window-width="1280"
     inkscape:window-height="938"
     inkscape:window-x="-4"
     inkscape:window-y="-4"
     inkscape:window-maximized="1">
    <inkscape:grid
       type="xygrid"
       id="grid3764"
       empspacing="5"
       visible="true"
       enabled="true"
       snapvisiblegridlinesonly="true" />
  </sodipodi:namedview>
  <metadata
     id="metadata7">
    <rdf:RDF>
      <cc:Work
         rdf:about="">
        <dc:format>image/svg+xml</dc:format>
        <dc:type
           rdf:resource="http://purl.org/dc/dcmitype/StillImage" />
        <dc:title></dc:title>
      </cc:Work>
    </rdf:RDF>
  </metadata>
  <g
     inkscape:label="Layer 1"
     inkscape:groupmode="layer"
     id="layer1">
    <path
       style="fill:none;stroke:#000000"
       d="m 270,192.375 c -55.22847,0 -100,44.77153 -100,100 0,33.58202 16.57184,63.2786 41.96875,81.40625 0.12598,-0.0751 0.0146,-0.0432 0.125,-0.0937 0.0159,-0.0739 0.007,0.0233 0,-0.0625 -0.002,-0.0198 -0.005,-0.0434 0,-0.0625 6e-4,-0.002 0.0533,-0.087 0.0625,-0.0937 0.0121,-0.009 0.0411,0.005 0.0625,0 -0.003,0.007 -0.0119,0.0337 -0.0312,0.0625 -0.0642,0.0956 -0.0161,0.0692 -0.0312,0.15625 -0.004,0.0215 -0.0212,0.0432 -0.0312,0.0625 -0.10327,0.0465 0.002,-0.0128 -0.125,0.0625 2.4888,1.77481 5.06795,3.42309 7.71875,4.96875 0.2199,-0.80443 0.44027,-1.50182 0.75,-2.1875 0.15719,-0.78529 1.15726,-2.93313 1.53125,-3.5625 -0.17366,0.90346 -0.38579,2.01894 -0.3125,1.71875 0.22967,-0.94073 0.33128,-1.44416 0.4375,-1.9375 -0.0397,0.0634 -0.0864,0.12339 -0.125,0.1875 0.20408,-1.05878 0.37689,-1.92204 0.40625,-1.78125 0.12199,-0.52446 0.38472,-1.00905 0.53125,-1.53125 0.039,-0.13901 -0.1961,0.5319 -0.125,0.40625 0.0253,-0.0448 0.0682,-0.0803 0.0937,-0.125 0.0103,-0.0261 -0.0109,-0.035 0,-0.0625 0.005,-0.0159 0.0265,-0.0479 0.0312,-0.0625 0.10888,-0.18943 0.23258,-0.37411 0.34375,-0.5625 0.002,-0.01 0.0288,-0.0212 0.0312,-0.0312 0.0732,-0.29524 0.12632,-0.58696 0.21875,-0.875 0.2149,-0.83073 0.46747,-1.70032 0.71875,-2.46875 0.24991,-0.76423 0.47367,-1.32164 0.59375,-1.25 0.49235,-1.70256 0.68691,-2.17164 1.6875,-3.65625 -0.10113,0.11455 -0.19985,0.23916 -0.3125,0.34375 -0.54759,0.50839 0.65716,-1.36735 1,-2.03125 0.21843,-0.42297 0.7941,-1.6827 0.6875,-1.21875 -0.12635,0.54987 -0.59557,0.95734 -0.75,1.5 -0.0702,0.24658 -0.13396,0.49949 -0.1875,0.75 0.37494,-0.55814 0.74358,-1.09381 1.34375,-2.03125 -0.49725,0.72148 -0.89479,1.50955 -1.40625,2.21875 -0.13502,0.67387 -0.22829,1.35275 -0.34375,2.03125 0.81104,-0.92269 1.66188,-1.8239 2.46875,-2.75 -1.11697,1.44623 -1.89178,2.38886 -2.53125,3.15625 0.0252,-0.13411 0.0396,-0.27161 0.0625,-0.40625 -0.47883,0.54475 -0.93302,1.08132 -1.375,1.65625 -0.12081,0.15715 -0.23434,0.34843 -0.3125,0.53125 0.0113,0.0277 0.0235,0.0457 0.0312,0.0937 0.31283,-0.37585 0.86058,-0.96444 1.59375,-1.84375 -1.5162,8.01091 0.93698,8.48262 4.875,6.1875 0.27204,-0.59225 0.64754,-1.39145 1.40625,-3.03125 0.065,-0.14059 -0.0909,0.28639 -0.125,0.4375 l 2.7188,-4.71885 c 0.9997,-0.92877 1.91832,-1.94941 3,-2.78125 1.41851,-1.09087 3.10637,-1.78316 4.75,-2.4375 0.3411,-0.13579 0.66575,-0.34034 1.03125,-0.375 0.14923,-0.0142 -0.48082,0.37316 -0.34375,0.3125 0.4908,-0.21719 0.93516,-0.5241 1.40625,-0.78125 2.47152,-1.28285 2.18553,-1.16358 5.0625,-2.1875 1.08679,-0.73469 0.34236,-0.32482 2.65625,-1.4375 2.47834,-0.89919 2.78765,-1.11677 5.78125,-1.5625 2.14234,-0.31898 4.40853,-0.25385 6.5625,-0.25 4.39729,0.008 4.85689,0.025 9.3125,0.0625 2.07818,0.0389 2.14087,0.0492 4.09375,0.0625 0.34252,0.002 0.68883,0.008 1.03125,0 0.21124,-0.005 0.64336,-0.27301 0.625,-0.0625 -0.14342,1.64491 -0.29855,3.17083 -0.46875,4.625 13.54,-5.9624 12.75215,-6.0371 6.1875,16.5625 2.5716,-1.16381 5.59749,-2.4992 9.6875,-4.125 0.21628,-1.25898 0.4719,-2.51728 0.65625,-3.78125 -0.0139,-0.17911 -0.0214,-0.35193 -0.0312,-0.53125 -0.007,-0.13301 0.0811,0.24309 0.0625,0.375 -0.007,0.0525 -0.0236,0.10379 -0.0312,0.15625 0.0629,0.81159 0.1415,1.62388 0.15625,2.4375 0.0724,3.99367 -0.35296,7.95831 -1.28125,11.84375 -0.83138,3.77395 -0.83312,4.27327 -2.28125,8.28125 -0.16022,0.44347 -0.47381,0.81521 -0.65625,1.25 -0.34784,0.82894 -0.67583,1.67993 -0.96875,2.53125 C 336.3332,380.2732 370,340.26729 370,292.375 c 0,-55.22847 -44.77153,-100 -100,-100 z"
       id="path3205" />
    <path
       style="fill:none;stroke:#000000"
       d="m 224.875,364.75 c -0.0113,-0.0277 -0.0166,-0.085 -0.0312,-0.0937 -0.0438,0.15152 -0.10667,0.3242 -0.15625,0.5 0.0212,-0.0283 0.0392,-0.0639 0.0625,-0.0937 0.0388,-0.10763 0.0804,-0.2082 0.125,-0.3125 z"
       id="path3203" />
    <path
       style="fill:none;stroke:#000000"
       d="m 224.75,365.0625 c -0.0682,0.18906 -0.11203,0.37874 -0.1875,0.5625 0.0522,-0.18669 0.0791,-0.30594 0.125,-0.46875 -0.19266,0.25798 -0.34451,0.47809 -0.4375,0.75 -0.11501,0.33632 -0.20877,0.86121 -0.40625,1.65625 0.16396,-0.35358 0.50726,-0.8841 0.84375,-1.4375 0.0909,-0.29094 0.17391,-0.5795 0.25,-0.875 7.9e-4,-0.17163 -0.0181,-0.28033 -0.0312,-0.375 -0.0621,0.075 -0.10554,0.12243 -0.15625,0.1875 z"
       id="path3201" />
    <path
       style="fill:none;stroke:#000000"
       d="m 224.6875,366.125 c -0.20928,0.66999 -0.46421,1.34398 -0.71875,2 0.68336,-1.14687 1.32905,-2.30298 1.84375,-3.53125 0.0385,-0.0918 0.0548,-0.15048 0.0625,-0.1875 -0.12722,0.0928 -0.68271,0.88858 -1.1875,1.71875 z"
       id="path3199" />
    <path
       style="fill:none;stroke:#000000"
       d="m 223.96875,368.125 c -0.17858,0.29971 -0.35307,0.60644 -0.53125,0.90625 -0.0854,0.30764 -0.13975,0.53189 -0.25,0.90625 -0.0218,0.0742 -0.0515,0.10013 -0.0625,0.125 0.007,-0.0792 0.0383,-0.26269 0.0937,-0.5 -0.10899,0.45783 -0.21341,0.92517 -0.34375,1.375 0.34231,-0.94792 0.72868,-1.8716 1.09375,-2.8125 z"
       id="path3197" />
    <path
       style="fill:none;stroke:#000000"
       d="m 222.125,372.8125 c 0.032,-0.0512 0.0611,-0.10548 0.0937,-0.15625 0.20437,-1.02543 0.0754,-0.26994 0.0937,-0.40625 0.0275,-0.20467 0.0144,-0.26474 0.0312,-0.40625 -0.0112,-0.009 -3.9e-4,-0.0435 0,-0.125 -0.0374,0.21686 -0.10832,0.58087 -0.21875,1.09375 z"
       id="path3195" />
    <path
       style="fill:none;stroke:#000000"
       d="m 250.09375,353.75 c -0.0908,0.0425 -0.22322,0.0915 -0.28125,0.125 -0.49763,0.28709 -1.89243,1.27483 -1.40625,0.96875 0.85619,-0.53901 1.32308,-0.84948 1.6875,-1.09375 z"
       id="path3193" />
    <path
       style="fill:none;stroke:#000000"
       d="m 221.6875,360.6875 c 0.011,0.004 0.008,0.0417 0,0.0625 -0.0151,0.0412 0.003,0.0117 -0.0312,0.0625 -0.0573,0.0575 -0.0973,0.11181 -0.125,0.1875 -0.007,0.0204 0.009,0.0425 0,0.0625 -0.004,0.0101 -0.0247,0.0224 -0.0312,0.0312 -0.007,0.0178 0.0105,0.0464 0,0.0625 -0.005,0.007 -0.0258,-0.007 -0.0312,0 -0.0119,0.0146 -0.02,0.0474 -0.0312,0.0625 -0.0364,0.0489 -0.077,0.0944 -0.0937,0.15625 -0.0117,0.0171 -0.0161,0.0172 -0.0312,0.0312 -0.0296,0.0273 -0.0592,0.0332 -0.0625,0.0312 0.01,-0.0175 0.036,-0.0275 -0.0312,0.0625 -0.0261,0.0349 -0.0355,0.0595 -0.0625,0.0937 -0.0113,0.0143 -0.0489,0.0192 -0.0625,0.0312 -0.0255,0.0117 -0.0594,0.087 -0.0625,0.0937 -0.004,0.008 -0.0275,-0.007 -0.0312,0 0.0112,-0.0255 0.032,-0.10648 0.0625,-0.125 0.0156,-0.01 0.0132,0.003 0.0312,0 0.0292,-0.0644 0.0701,-0.14062 0.125,-0.1875 0.0856,-0.0731 0.0555,0.0133 0.0937,-0.0625 0.0179,-0.0637 0.0559,-0.10546 0.0937,-0.15625 0.01,-0.0129 0.0208,-0.019 0.0312,-0.0312 0.0458,-0.0543 0.0192,-10e-4 0.0312,-0.0625 0.009,-0.0127 0.0251,-0.0485 0.0312,-0.0625 0.007,-0.0154 -0.005,-0.0154 0,-0.0312 0.0306,-0.087 0.0608,-0.15146 0.125,-0.21875 0.0269,-0.0412 0.0234,-0.0342 0.0312,-0.0625 0.006,-0.0213 0.0202,-0.0349 0.0312,-0.0312 z"
       id="path3191" />
    <path
       style="fill:none;stroke:#000000"
       d="m 220.875,361.84375 c -0.007,0.004 0.008,0.0278 0,0.0312 -0.11032,0.0582 -0.21434,0.1543 -0.25,0.28125 -0.0492,0.0642 -0.12116,0.10823 -0.1875,0.15625 -0.10471,0.0758 -0.22078,0.12452 -0.3125,0.21875 -0.0308,0.0317 -0.0619,5.4e-4 -0.0312,-0.0312 0.0939,-0.097 0.2363,-0.14097 0.34375,-0.21875 0.0618,-0.0447 0.0794,-0.0964 0.125,-0.15625 0.0314,-0.12879 0.20539,-0.22408 0.3125,-0.28125 z"
       id="path3189" />
    <path
       style="fill:none;stroke:#000000;stroke-width:0.85000002"
       d="M 267.8125 207.375 C 221.88223 208.53865 185 246.1643 185 292.375 C 185 322.74645 200.94465 349.37842 224.90625 364.40625 C 225.3529 362.89204 225.57446 362.41962 226.53125 361 C 226.43012 361.11455 226.3314 361.23916 226.21875 361.34375 C 225.67116 361.85214 226.87591 359.9764 227.21875 359.3125 C 227.43718 358.88953 228.01285 357.6298 227.90625 358.09375 C 227.7799 358.64362 227.31068 359.05109 227.15625 359.59375 C 227.08607 359.84033 227.02229 360.09324 226.96875 360.34375 C 227.34369 359.78561 227.71233 359.24994 228.3125 358.3125 C 227.81525 359.03398 227.41771 359.82205 226.90625 360.53125 C 226.77123 361.20512 226.67796 361.884 226.5625 362.5625 C 227.37354 361.63981 228.22438 360.7386 229.03125 359.8125 C 227.91428 361.25873 227.13947 362.20136 226.5 362.96875 C 226.52516 362.83464 226.53959 362.69714 226.5625 362.5625 C 226.08367 363.10725 225.62948 363.64382 225.1875 364.21875 C 225.13128 364.29188 225.07639 364.38892 225.03125 364.46875 C 225.08263 364.50086 225.13605 364.5305 225.1875 364.5625 C 225.48845 364.21123 225.92799 363.68603 226.5 363 C 226.35001 363.79247 226.23093 364.50664 226.15625 365.15625 C 227.9918 366.26421 229.85868 367.31132 231.78125 368.28125 C 232.05539 367.68541 232.24987 367.30473 232.78125 366.15625 C 232.84625 366.01566 232.69033 366.44264 232.65625 366.59375 L 235.375 361.875 C 236.3747 360.94623 237.29332 359.92559 238.375 359.09375 C 239.79351 358.00288 241.48137 357.31059 243.125 356.65625 C 243.4661 356.52046 243.79075 356.31591 244.15625 356.28125 C 244.30548 356.26705 243.67543 356.65441 243.8125 356.59375 C 244.3033 356.37656 244.74766 356.06965 245.21875 355.8125 C 247.69027 354.52965 247.40428 354.64892 250.28125 353.625 C 251.36804 352.89031 250.62361 353.30018 252.9375 352.1875 C 255.41584 351.28831 255.72515 351.07073 258.71875 350.625 C 260.86109 350.30602 263.12728 350.37115 265.28125 350.375 C 269.67854 350.383 270.13814 350.4 274.59375 350.4375 C 276.67193 350.4764 276.73462 350.4867 278.6875 350.5 C 279.03002 350.502 279.37633 350.5081 279.71875 350.5 C 279.92999 350.495 280.36211 350.22699 280.34375 350.4375 C 280.20033 352.08241 280.0452 353.60833 279.875 355.0625 C 293.415 349.1001 292.62715 349.0254 286.0625 371.625 C 288.6341 370.46119 291.65999 369.1258 295.75 367.5 C 295.96628 366.24102 296.2219 364.98272 296.40625 363.71875 C 296.39237 363.53964 296.38484 363.36682 296.375 363.1875 C 296.3678 363.05449 296.4561 363.43059 296.4375 363.5625 C 296.43009 363.615 296.4139 363.66629 296.40625 363.71875 C 296.46913 364.53034 296.54775 365.34263 296.5625 366.15625 C 296.60562 368.5349 296.4689 370.89808 296.15625 373.25 C 330.29906 362.21624 355 330.19079 355 292.375 C 355 245.4308 316.9442 207.375 270 207.375 C 269.2665 207.375 268.54155 207.35653 267.8125 207.375 z M 250.09375 353.75 C 250.0029 353.79251 249.87053 353.84152 249.8125 353.875 C 249.31487 354.16209 247.92007 355.14983 248.40625 354.84375 C 249.26244 354.30474 249.72933 353.99427 250.09375 353.75 z M 221.6875 360.6875 C 221.69854 360.69116 221.6951 360.72925 221.6875 360.75 C 221.6724 360.7912 221.69075 360.7617 221.65625 360.8125 C 221.59895 360.87 221.55892 360.92431 221.53125 361 C 221.52425 361.0204 221.53985 361.0425 221.53125 361.0625 C 221.52725 361.0726 221.5066 361.08485 221.5 361.09375 C 221.493 361.11155 221.5105 361.14015 221.5 361.15625 C 221.495 361.16325 221.47415 361.14935 221.46875 361.15625 C 221.45685 361.17085 221.4487 361.20365 221.4375 361.21875 C 221.4011 361.26765 221.36055 361.31312 221.34375 361.375 C 221.33205 361.3921 221.3277 361.39225 221.3125 361.40625 C 221.28294 361.43357 221.2533 361.43946 221.25 361.4375 C 221.25955 361.41996 221.28605 361.41 221.21875 361.5 C 221.19265 361.5349 221.18325 361.55952 221.15625 361.59375 C 221.14495 361.60805 221.10735 361.6129 221.09375 361.625 C 221.06825 361.6367 221.03435 361.71195 221.03125 361.71875 C 221.02773 361.72659 221.00375 361.71151 221 361.71875 C 221.0112 361.69325 221.032 361.61227 221.0625 361.59375 C 221.0781 361.58375 221.07575 361.59675 221.09375 361.59375 C 221.12295 361.52935 221.16388 361.45313 221.21875 361.40625 C 221.30435 361.33315 221.2742 361.41955 221.3125 361.34375 C 221.3304 361.28005 221.36838 361.23829 221.40625 361.1875 C 221.41625 361.1746 221.4271 361.16855 221.4375 361.15625 C 221.4833 361.10195 221.45675 361.15525 221.46875 361.09375 C 221.47775 361.08105 221.4939 361.04525 221.5 361.03125 C 221.507 361.01585 221.4946 361.0158 221.5 361 C 221.5306 360.913 221.56083 360.84854 221.625 360.78125 C 221.6519 360.74005 221.64845 360.74705 221.65625 360.71875 C 221.6621 360.69745 221.67646 360.68384 221.6875 360.6875 z M 225.875 364.375 C 225.85733 364.33678 225.7019 364.54428 225.53125 364.78125 C 225.58287 364.81301 225.63581 364.84335 225.6875 364.875 C 225.7293 364.78038 225.77249 364.68923 225.8125 364.59375 C 225.86979 364.45705 225.88469 364.39596 225.875 364.375 z M 263.8125 375.875 C 263.36755 376.12175 263.26422 376.16067 262.9375 376.34375 C 263.1705 376.42782 263.70437 375.99745 263.8125 375.875 z M 261.40625 376.40625 C 261.2124 376.4017 261.06484 376.44523 261.09375 376.59375 C 261.1325 376.79283 261.83621 376.58749 262.34375 376.4375 C 262.21851 376.44004 262.09396 376.43325 261.96875 376.4375 C 261.81753 376.4426 261.6001 376.4108 261.40625 376.40625 z M 262.8125 376.4375 C 262.45851 376.6361 262.04868 376.8362 261.8125 376.96875 C 263.99803 377.17781 266.20683 377.30338 268.4375 377.34375 C 268.57856 377.05372 268.70371 376.75917 268.84375 376.46875 C 267.84392 376.46309 266.8808 376.44046 265.15625 376.4375 C 264.37322 376.43603 263.59547 376.43215 262.8125 376.4375 z "
       id="path3798" />
    <path
       style="fill:none;stroke:#000000;stroke-width:1.22474504px;stroke-linecap:butt;stroke-linejoin:miter;stroke-opacity:1;display:inline"
       d="m 270,192.36218 0,15"
       id="path3802"
       inkscape:connector-type="polyline"
       inkscape:connector-curvature="3" />
    <path
       inkscape:connector-curvature="3"
       inkscape:connector-type="polyline"
       id="path2999"
       d="m 319.84938,361.01626 8.81678,12.13524"
       style="fill:none;stroke:#000000;stroke-width:1.22474504px;stroke-linecap:butt;stroke-linejoin:miter;stroke-opacity:1;display:inline" />
    <path
       inkscape:connector-curvature="3"
       inkscape:connector-type="polyline"
       id="path3003"
       d="m 175.00672,261.57287 14.26584,4.63524"
       style="fill:none;stroke:#000000;stroke-width:1.22474504px;stroke-linecap:butt;stroke-linejoin:miter;stroke-opacity:1;display:inline" />
    <path
       style="fill:none;stroke:#000000;stroke-width:1.22474504px;stroke-linecap:butt;stroke-linejoin:miter;stroke-opacity:1;display:inline"
       d="m 211.33384,211.57286 8.81678,12.13524"
       id="path3007"
       inkscape:connector-type="polyline"
       inkscape:connector-curvature="3" />
    <path
       inkscape:connector-curvature="3"
       inkscape:connector-type="polyline"
       id="path3009"
       d="m 350.72744,318.51625 14.26584,4.63524"
       style="fill:none;stroke:#000000;stroke-width:1.22474504px;stroke-linecap:butt;stroke-linejoin:miter;stroke-opacity:1;display:inline" />
    <path
       style="fill:none;stroke:#000000;stroke-width:1.22474504px;stroke-linecap:butt;stroke-linejoin:miter;stroke-opacity:1;display:inline"
       d="m 175.00672,323.15151 14.26582,-4.63526"
       id="path3011"
       inkscape:connector-type="polyline"
       inkscape:connector-curvature="3" />
    <path
       inkscape:connector-curvature="3"
       inkscape:connector-type="polyline"
       id="path3013"
       d="m 350.72746,266.20811 14.26582,-4.63526"
       style="fill:none;stroke:#000000;stroke-width:1.22474504px;stroke-linecap:butt;stroke-linejoin:miter;stroke-opacity:1;display:inline" />
    <path
       inkscape:connector-curvature="3"
       inkscape:connector-type="polyline"
       id="path3015"
       d="m 175.00672,323.15151 14.26582,-4.63526"
       style="fill:none;stroke:#000000;stroke-width:1.22474504px;stroke-linecap:butt;stroke-linejoin:miter;stroke-opacity:1;display:inline" />
    <path
       style="fill:none;stroke:#000000;stroke-width:1.22474504px;stroke-linecap:butt;stroke-linejoin:miter;stroke-opacity:1;display:inline"
       d="M 220.15625 361.03125 L 211.34375 373.15625 L 220.15625 361.03125 z "
       id="path3019" />
    <path
       inkscape:connector-curvature="3"
       inkscape:connector-type="polyline"
       id="path3023"
       d="m 319.84941,223.70809 8.81674,-12.13524"
       style="fill:none;stroke:#000000;stroke-width:1.22474504px;stroke-linecap:butt;stroke-linejoin:miter;stroke-opacity:1;display:inline" />
    <path
       style="fill:none;stroke:#000000;stroke-width:1px;stroke-linecap:butt;stroke-linejoin:miter;stroke-opacity:1"
       d="m 242.18845,206.76709 -3.09016,-9.51056"
       id="path3025"
       inkscape:connector-type="polyline"
       inkscape:connector-curvature="0" />
    <path
       inkscape:connector-curvature="0"
       inkscape:connector-type="polyline"
       id="path3027"
       d="m 242.18845,206.76709 -3.09016,-9.51056"
       style="fill:none;stroke:#000000;stroke-width:1px;stroke-linecap:butt;stroke-linejoin:miter;stroke-opacity:1" />
    <path
       style="fill:none;stroke:#000000;stroke-width:1px;stroke-linecap:butt;stroke-linejoin:miter;stroke-opacity:1"
       d="m 197.18846,239.46151 -8.09016,-5.87784"
       id="path3029"
       inkscape:connector-type="polyline"
       inkscape:connector-curvature="0" />
    <path
       inkscape:connector-curvature="0"
       inkscape:connector-type="polyline"
       id="path3033"
       d="m 197.18846,345.26287 -8.09016,5.87784"
       style="fill:none;stroke:#000000;stroke-width:1px;stroke-linecap:butt;stroke-linejoin:miter;stroke-opacity:1" />
    <path
       style="fill:none;stroke:#000000;stroke-width:1px;stroke-linecap:butt;stroke-linejoin:miter;stroke-opacity:1"
       d="m 350.9017,351.14069 -8.09016,-5.87784"
       id="path3035"
       inkscape:connector-type="polyline"
       inkscape:connector-curvature="0" />
    <path
       inkscape:connector-curvature="0"
       inkscape:connector-type="polyline"
       id="path3039"
       d="m 350.9017,233.58365 -8.09016,5.87784"
       style="fill:none;stroke:#000000;stroke-width:1px;stroke-linecap:butt;stroke-linejoin:miter;stroke-opacity:1" />
    <path
       style="fill:none;stroke:#000000;stroke-width:1px;stroke-linecap:butt;stroke-linejoin:miter;stroke-opacity:1"
       d="m 300.90169,197.25653 -3.09016,9.51056"
       id="path3043"
       inkscape:connector-type="polyline"
       inkscape:connector-curvature="0" />
    <path
       style="fill:none;stroke:#000000;stroke-width:1px;stroke-linecap:butt;stroke-linejoin:miter;stroke-opacity:1"
       d="m 170,292.36218 10,0"
       id="path3045"
       inkscape:connector-type="polyline"
       inkscape:connector-curvature="0" />
    <path
       style="fill:none;stroke:#000000;stroke-width:1px;stroke-linecap:butt;stroke-linejoin:miter;stroke-opacity:1"
       d="m 370,292.36218 -10,0"
       id="path3047"
       inkscape:connector-type="polyline"
       inkscape:connector-curvature="0" />
    <path
       style="fill:#00ff00;stroke:#00ff00;stroke-width:0.50507629"
       d="m 216.59047,217.27997 c -1.94455,-2.6853 -3.6161,-5.08139 -3.71457,-5.32466 -0.23979,-0.59243 0.77962,-1.33084 6.81665,-4.93767 5.27826,-3.1535 15.66898,-7.92676 17.80231,-8.17798 1.09026,-0.12839 1.3375,0.24697 2.56783,3.89854 0.89095,2.64432 1.65217,4.09704 2.20284,4.20391 1.0569,0.20512 1.10779,0.56161 -0.67112,-4.70109 -0.83191,-2.46111 -1.45694,-4.52026 -1.38896,-4.57589 0.26058,-0.21324 13.36769,-3.20806 15.52843,-3.54806 1.25006,-0.1967 4.82985,-0.49662 7.95508,-0.66648 l 5.68224,-0.30884 -1.3e-4,6.68264 c -1.5e-4,7.74765 0.70538,6.98301 -6.81866,7.38986 -12.29172,0.66464 -27.26429,5.65601 -38.27528,12.75974 -1.88376,1.2153 -3.58839,2.20485 -3.78807,2.19899 -0.19968,-0.006 -1.95405,-2.20772 -3.89859,-4.89301 z"
       id="path3051"
       inkscape:connector-curvature="0" />
    <path
       style="fill:#00ff00;stroke:#00ff00;stroke-width:0.50507629"
       d="m 182.28195,263.03811 c -3.31333,-1.08594 -6.09217,-2.04237 -6.1752,-2.1254 -0.66562,-0.66562 5.89327,-14.66497 9.80231,-20.92214 3.62415,-5.80115 3.06621,-5.64184 7.66539,-2.18868 2.70408,2.03029 4.07566,2.55073 4.07566,1.54651 0,-0.2821 -1.59099,-1.67373 -3.53554,-3.09252 -1.94454,-1.41878 -3.53553,-2.70149 -3.53553,-2.85046 0,-1.53489 12.03839,-14.2138 17.43071,-18.35815 l 3.03605,-2.3334 3.90427,5.36623 3.90428,5.36622 -2.1421,1.75921 c -11.48188,9.42954 -21.2897,22.61281 -26.0203,34.97542 -1.03437,2.70315 -1.99432,4.8961 -2.13322,4.87321 -0.13889,-0.0229 -2.96344,-0.9301 -6.27678,-2.01605 l 0,0 z"
       id="path3053"
       inkscape:connector-curvature="0" />
    <path
       style="fill:#00ff00;stroke:#00ff00;stroke-width:0.50507629"
       d="m 175.16598,321.52907 c -1.9755,-5.74569 -4.25766,-19.2119 -4.27506,-25.22549 l -0.01,-3.40927 4.84032,0 c 3.64711,0 4.78874,-0.15563 4.6311,-0.63134 -0.1422,-0.42912 -1.69264,-0.67787 -4.84032,-0.77657 l -4.6311,-0.14522 0.01,-3.13778 c 0.0181,-5.75243 2.33484,-19.28974 4.26701,-24.93303 0.13523,-0.39495 2.17946,0.0452 6.35941,1.36922 3.38807,1.07321 6.25633,2.04748 6.37391,2.16506 0.11758,0.11759 -0.23982,2.00156 -0.79423,4.18662 -3.46033,13.63807 -3.46443,29.25192 -0.0112,42.7767 0.56059,2.19563 0.95088,4.04755 0.86731,4.11536 -0.0836,0.0678 -2.94822,1.05153 -6.36586,2.18603 -4.33545,1.43917 -6.27658,1.88044 -6.42124,1.45971 l 0,0 z"
       id="path3055"
       inkscape:connector-curvature="0" />
    <path
       style="fill:#00ff00;stroke:#00ff00;stroke-width:0.50507628999999998"
       d="M 188.8125 319.8125 C 188.78434 319.74914 185.86007 320.60675 182.34375 321.71875 L 175.96875 323.71875 L 177.28125 327.375 C 178.96797 332.0684 182.82552 339.81237 186.34375 345.5 C 187.86711 347.96271 189.16055 349.96875 189.21875 349.96875 C 189.27698 349.96875 191.02494 348.72565 193.09375 347.21875 C 196.58921 344.67269 197.65625 344.25962 197.65625 345.4375 C 197.65625 345.6958 196.06955 347.08566 194.125 348.5 C 192.18046 349.91434 190.59375 351.18293 190.59375 351.34375 C 190.59375 352.84301 202.1697 365.09935 207.78125 369.53125 L 210.96875 372.0625 L 214.90625 366.6875 L 218.8125 361.34375 L 216.4375 359.375 C 212.11844 355.79892 203.52236 346.65666 200.625 342.59375 C 196.56893 336.90601 193.15286 330.75755 190.84375 324.9375 C 189.74482 322.16768 188.8407 319.8759 188.8125 319.8125 z "
       id="path3057" />
    <path
       style="fill:#ffff00;stroke:#ffff00;stroke-width:0.50507629"
       d="m 319.17427,222.26991 c -0.52484,-0.84922 -9.64859,-6.00896 -14.19546,-8.02794 -9.58493,-4.25608 -21.67261,-7.21063 -29.50021,-7.21063 -4.79957,0 -4.59242,0.32708 -4.59257,-7.25137 l -1.3e-4,-6.63822 5.68224,0.31898 c 3.12523,0.17544 7.15959,0.5754 8.96524,0.88879 5.96776,1.03579 14.14213,3.2589 14.14213,3.84611 0,0.31766 -0.56821,2.24817 -1.26269,4.29003 -1.47579,4.339 -1.49949,4.54568 -0.52139,4.54568 0.48855,0 1.19766,-1.46373 2.07983,-4.29314 0.7362,-2.36124 1.4874,-4.29315 1.66934,-4.29315 0.80412,0 8.3958,3.14908 12.24598,5.07972 4.6635,2.33847 12.31499,6.8954 13.02177,7.75525 0.29048,0.35339 -0.95955,2.49331 -3.50195,5.99499 -2.17453,2.99498 -4.07898,5.24269 -4.23213,4.9949 l 0,0 z"
       id="path3059"
       inkscape:connector-curvature="0" />
    <path
       style="fill:#ffff00;stroke:#ffff00;stroke-width:0.50507628999999998"
       d="m 350.85297,264.22272 c -3.09482,-8.96805 -6.87589,-15.97657 -12.99533,-24.08794 -3.26884,-4.33288 -11.71601,-12.95428 -14.65144,-14.95363 -0.99303,-0.67636 -1.80706,-1.41711 -1.80896,-1.6461 -0.006,-0.68407 7.2317,-10.44279 7.74469,-10.44279 1.49436,0 13.47419,11.4063 18.23497,17.36198 l 2.37196,2.9673 -3.81997,2.76869 c -3.38137,2.45079 -4.30366,3.67107 -2.7746,3.67107 0.26823,0 2.01627,-1.11676 3.88454,-2.48168 2.50337,-1.82893 3.56473,-2.34255 4.03512,-1.95272 2.39396,1.98402 12.74625,22.41928 12.74625,25.1609 0,0.32011 -4.82179,2.04826 -12.01468,4.3061 -0.35776,0.11231 -0.7864,-0.18973 -0.95255,-0.67118 z"
       id="path3061"
       inkscape:connector-curvature="0" />
    <path
       style="fill:#ff0000;stroke:#ff0000;stroke-width:0.50507628999999998"
       d="m 358.21691,320.00278 -6.3609,-2.10719 0.92306,-3.53554 c 3.55829,-13.62922 3.557,-30.3262 -0.003,-43.98191 l -0.93231,-3.5758 5.86216,-1.92383 c 3.22419,-1.0581 6.12199,-2.02093 6.43956,-2.13963 1.17848,-0.44049 4.19143,14.29632 5.00359,24.47332 l 0.33253,4.16688 -4.8508,0 c -3.9751,0 -4.85079,0.13677 -4.85079,0.75762 0,0.62085 0.87581,0.75761 4.85184,0.75761 l 4.85185,0 -0.34798,4.67196 c -0.53622,7.19918 -1.1599,11.18435 -2.84559,18.18274 -0.85312,3.54185 -1.5873,6.42201 -1.63151,6.40035 -0.0442,-0.0217 -2.94279,-0.98762 -6.44129,-2.14658 l 0,0 z"
       id="path3063"
       inkscape:connector-curvature="0" />
    <path
       style="fill:#ff0000;stroke:#ff0000;stroke-width:0.50507628999999998"
       d="m 325.04971,366.63 c -2.01075,-2.78092 -3.65592,-5.24251 -3.65592,-5.47022 0,-0.2277 1.00751,-1.13754 2.2389,-2.02186 3.30358,-2.37245 11.04848,-10.28174 14.37098,-14.67601 5.07116,-6.70701 11.26274,-18.09839 12.45194,-22.90929 0.18948,-0.76656 0.51629,-1.4999 0.72625,-1.62966 0.35352,-0.21849 12.01461,3.49399 12.50024,3.97963 0.73759,0.73758 -5.49724,14.36971 -9.59733,20.98407 -3.47247,5.60187 -2.96579,5.43959 -7.20212,2.30668 -2.91574,-2.15629 -3.80458,-2.59125 -4.23511,-2.07248 -0.42054,0.50672 0.31362,1.27055 3.21697,3.34694 2.06903,1.4797 3.62461,2.93396 3.45684,3.23167 -2.3422,4.15653 -18.38963,19.98674 -20.26099,19.98674 -0.1951,0 -1.99989,-2.27529 -4.01065,-5.05621 z"
       id="path3065"
       inkscape:connector-curvature="0" />
    <rect
       style="fill:none;stroke:none"
       id="rect3209"
       width="16"
       height="22"
       x="209"
       y="358.36218" />
    <rect
       style="fill:none;stroke:none"
       id="rect3214"
       width="9"
       height="5"
       x="220"
       y="376.36218" />
    <rect
       style="fill:none;stroke:none"
       id="rect3216"
       width="5"
       height="6"
       x="227"
       y="372.36218" />
    <rect
       style="fill:none;stroke:#000000"
       id="rect3220"
       width="1"
       height="1"
       x="228"
       y="365.36218" />
  </g>
</svg>
