<?xml version="1.0" encoding="UTF-8" standalone="no"?>
<!-- Created with Inkscape (http://www.inkscape.org/) -->

<svg
   xmlns:dc="http://purl.org/dc/elements/1.1/"
   xmlns:cc="http://creativecommons.org/ns#"
   xmlns:rdf="http://www.w3.org/1999/02/22-rdf-syntax-ns#"
   xmlns:svg="http://www.w3.org/2000/svg"
   xmlns="http://www.w3.org/2000/svg"
   xmlns:sodipodi="http://sodipodi.sourceforge.net/DTD/sodipodi-0.dtd"
   xmlns:inkscape="http://www.inkscape.org/namespaces/inkscape"
   width="171.5"
   height="155.3913"
   id="svg2"
   version="1.1"
   inkscape:version="0.48.2 r9819"
   sodipodi:docname="rotation-v2.svg">
  <defs
     id="defs4" />
  <sodipodi:namedview
     id="base"
     pagecolor="#ffffff"
     bordercolor="#666666"
     borderopacity="1.0"
     inkscape:pageopacity="0.0"
     inkscape:pageshadow="2"
     inkscape:zoom="0.99030803"
     inkscape:cx="-138.51903"
     inkscape:cy="2.0058578"
     inkscape:document-units="px"
     inkscape:current-layer="layer1"
     showgrid="true"
     inkscape:snap-global="true"
     inkscape:object-paths="true"
     inkscape:snap-bbox="true"
     inkscape:window-width="1280"
     inkscape:window-height="744"
     inkscape:window-x="-4"
     inkscape:window-y="-4"
     inkscape:window-maximized="1"
     width="651.5px"
     fit-margin-top="0"
     fit-margin-left="0"
     fit-margin-right="0"
     fit-margin-bottom="0">
    <inkscape:grid
       type="xygrid"
       id="grid3764"
       empspacing="5"
       visible="true"
       enabled="true"
       snapvisiblegridlinesonly="true" />
  </sodipodi:namedview>
  <metadata
     id="metadata7">
    <rdf:RDF>
      <cc:Work
         rdf:about="">
        <dc:format>image/svg+xml</dc:format>
        <dc:type
           rdf:resource="http://purl.org/dc/dcmitype/StillImage" />
        <dc:title />
      </cc:Work>
    </rdf:RDF>
  </metadata>
  <g
     inkscape:label="Layer 1"
     inkscape:groupmode="layer"
     id="layer1"
     transform="translate(-184.25,-205.1712)">
    <path
       style="fill:none;stroke:#000000;stroke-width:1.05006576px;stroke-linecap:butt;stroke-linejoin:miter;stroke-opacity:1;display:inline"
       d="m 270,205.25472 0,12.86062"
       id="path3802"
       inkscape:connector-type="polyline"
       inkscape:connector-curvature="3" />
    <path
       inkscape:connector-curvature="3"
       inkscape:connector-type="polyline"
       id="path2999"
       d="m 312.73961,349.85451 7.55929,10.40445"
       style="fill:none;stroke:#000000;stroke-width:1.05006576px;stroke-linecap:butt;stroke-linejoin:miter;stroke-opacity:1;display:inline" />
    <path
       inkscape:connector-curvature="3"
       inkscape:connector-type="polyline"
       id="path3003"
       d="m 188.55513,264.59424 12.23118,3.97413"
       style="fill:none;stroke:#000000;stroke-width:1.05006576px;stroke-linecap:butt;stroke-linejoin:miter;stroke-opacity:1;display:inline" />
    <path
       style="fill:none;stroke:#000000;stroke-width:1.05006576px;stroke-linecap:butt;stroke-linejoin:miter;stroke-opacity:1;display:inline"
       d="m 219.7011,221.72548 7.55929,10.40445"
       id="path3007"
       inkscape:connector-type="polyline"
       inkscape:connector-curvature="3" />
    <path
       inkscape:connector-curvature="3"
       inkscape:connector-type="polyline"
       id="path3009"
       d="m 339.21369,313.41607 12.23118,3.97413"
       style="fill:none;stroke:#000000;stroke-width:1.05006576px;stroke-linecap:butt;stroke-linejoin:miter;stroke-opacity:1;display:inline" />
    <path
       style="fill:none;stroke:#000000;stroke-width:1.05006576px;stroke-linecap:butt;stroke-linejoin:miter;stroke-opacity:1;display:inline"
       d="m 188.55513,317.39022 12.23116,-3.97415"
       id="path3011"
       inkscape:connector-type="polyline"
       inkscape:connector-curvature="3" />
    <path
       inkscape:connector-curvature="3"
       inkscape:connector-type="polyline"
       id="path3013"
       d="m 339.21371,268.56837 12.23116,-3.97415"
       style="fill:none;stroke:#000000;stroke-width:1.05006576px;stroke-linecap:butt;stroke-linejoin:miter;stroke-opacity:1;display:inline" />
    <path
       inkscape:connector-curvature="3"
       inkscape:connector-type="polyline"
       id="path3015"
       d="m 188.55513,317.39022 12.23116,-3.97415"
       style="fill:none;stroke:#000000;stroke-width:1.05006576px;stroke-linecap:butt;stroke-linejoin:miter;stroke-opacity:1;display:inline" />
    <path
       inkscape:connector-curvature="3"
       inkscape:connector-type="polyline"
       id="path3019"
       d="m 219.70111,360.25897 7.55925,-10.40445"
       style="fill:none;stroke:#000000;stroke-width:1.05006576px;stroke-linecap:butt;stroke-linejoin:miter;stroke-opacity:1;display:inline" />
    <path
       style="fill:none;stroke:#000000;stroke-width:1.05006576px;stroke-linecap:butt;stroke-linejoin:miter;stroke-opacity:1;display:inline"
       d="m 219.70111,360.25897 7.55925,-10.40445"
       id="path3021"
       inkscape:connector-type="polyline"
       inkscape:connector-curvature="3" />
    <path
       inkscape:connector-curvature="3"
       inkscape:connector-type="polyline"
       id="path3023"
       d="m 312.73964,232.12992 7.55925,-10.40445"
       style="fill:none;stroke:#000000;stroke-width:1.05006576px;stroke-linecap:butt;stroke-linejoin:miter;stroke-opacity:1;display:inline" />
    <path
       style="fill:none;stroke:#000000;stroke-width:0.85737497px;stroke-linecap:butt;stroke-linejoin:miter;stroke-opacity:1"
       d="m 246.15508,217.60513 -2.64943,-8.15412"
       id="path3025"
       inkscape:connector-type="polyline"
       inkscape:connector-curvature="0" />
    <path
       inkscape:connector-curvature="0"
       inkscape:connector-type="polyline"
       id="path3027"
       d="m 246.15508,217.60513 -2.64943,-8.15412"
       style="fill:none;stroke:#000000;stroke-width:0.85737497px;stroke-linecap:butt;stroke-linejoin:miter;stroke-opacity:1" />
    <path
       style="fill:none;stroke:#000000;stroke-width:0.85737497px;stroke-linecap:butt;stroke-linejoin:miter;stroke-opacity:1"
       d="M 207.57321,245.63651 200.6369,240.597"
       id="path3029"
       inkscape:connector-type="polyline"
       inkscape:connector-curvature="0" />
    <path
       inkscape:connector-curvature="0"
       inkscape:connector-type="polyline"
       id="path3033"
       d="m 207.57321,336.34795 -6.93631,5.03952"
       style="fill:none;stroke:#000000;stroke-width:0.85737497px;stroke-linecap:butt;stroke-linejoin:miter;stroke-opacity:1" />
    <path
       style="fill:none;stroke:#000000;stroke-width:0.85737497px;stroke-linecap:butt;stroke-linejoin:miter;stroke-opacity:1"
       d="m 339.36309,341.38745 -6.9363,-5.03952"
       id="path3035"
       inkscape:connector-type="polyline"
       inkscape:connector-curvature="0" />
    <path
       inkscape:connector-curvature="0"
       inkscape:connector-type="polyline"
       id="path3039"
       d="m 339.36309,240.59698 -6.9363,5.03951"
       style="fill:none;stroke:#000000;stroke-width:0.85737497px;stroke-linecap:butt;stroke-linejoin:miter;stroke-opacity:1" />
    <path
       style="fill:none;stroke:#000000;stroke-width:0.85737497px;stroke-linecap:butt;stroke-linejoin:miter;stroke-opacity:1"
       d="m 296.49434,209.45101 -2.64944,8.15412"
       id="path3043"
       inkscape:connector-type="polyline"
       inkscape:connector-curvature="0" />
    <path
       style="fill:none;stroke:#000000;stroke-width:0.85737497px;stroke-linecap:butt;stroke-linejoin:miter;stroke-opacity:1"
       d="m 184.2625,290.99222 8.57375,0"
       id="path3045"
       inkscape:connector-type="polyline"
       inkscape:connector-curvature="0" />
    <path
       style="fill:none;stroke:#000000;stroke-width:0.85737497px;stroke-linecap:butt;stroke-linejoin:miter;stroke-opacity:1"
       d="m 355.7375,290.99222 -8.57375,0"
       id="path3047"
       inkscape:connector-type="polyline"
       inkscape:connector-curvature="0" />
    <path
       style="fill:#00ff00;stroke:#00ff00;stroke-width:0.43303978"
       d="m 224.208,226.6186 c -1.66721,-2.3023 -3.10035,-4.35665 -3.18478,-4.56522 -0.20558,-0.50794 0.66842,-1.14103 5.84442,-4.23344 4.52546,-2.70373 13.4342,-6.7962 15.26326,-7.01159 0.93477,-0.11008 1.14674,0.21175 2.2016,3.34251 0.76388,2.26718 1.41653,3.5127 1.88866,3.60433 0.90616,0.17586 0.94979,0.48151 -0.5754,-4.0306 -0.71327,-2.1101 -1.24914,-3.87557 -1.19086,-3.92325 0.22341,-0.18282 11.46112,-2.75051 13.31369,-3.04202 1.07176,-0.16865 4.14098,-0.42579 6.82048,-0.57143 l 4.87181,-0.26479 -1.1e-4,5.72953 c -1.3e-4,6.64264 0.60478,5.98706 -5.84615,6.33588 -10.5386,0.56985 -23.37573,4.84932 -32.81627,10.93989 -1.61508,1.04197 -3.0766,1.89038 -3.24779,1.88535 -0.17121,-0.006 -1.67535,-1.89284 -3.34256,-4.19515 z"
       id="path3051"
       inkscape:connector-curvature="0" />
    <path
       style="fill:#00ff00;stroke:#00ff00;stroke-width:0.43303978"
       d="m 194.79274,265.8505 c -2.84077,-0.93107 -5.22327,-1.75108 -5.29447,-1.82226 -0.57068,-0.5707 5.05275,-12.57339 8.40426,-17.93813 3.10725,-4.97376 2.62889,-4.83716 6.57211,-1.87652 2.31841,1.74072 3.49437,2.18693 3.49437,1.32594 0,-0.24186 -1.36408,-1.43502 -3.03128,-2.65144 -1.6672,-1.21643 -3.03127,-2.3162 -3.03127,-2.44393 0,-1.31597 10.32141,-12.18655 14.94465,-15.73982 l 2.60303,-2.00059 3.34743,4.60088 3.34743,4.60086 -1.83658,1.5083 c -9.84428,8.08465 -18.25326,19.38766 -22.30916,29.98705 -0.88685,2.31762 -1.70988,4.19779 -1.82897,4.17816 -0.11908,-0.0197 -2.54078,-0.79744 -5.38155,-1.7285 l 0,0 z"
       id="path3053"
       inkscape:connector-curvature="0" />
    <path
       style="fill:#00ff00;stroke:#00ff00;stroke-width:0.43303978"
       d="m 188.69168,315.99918 c -1.69374,-4.92621 -3.65041,-16.47181 -3.66533,-21.62771 l -0.01,-2.92301 4.14998,0 c 3.12693,0 4.10574,-0.13344 3.97058,-0.5413 -0.12192,-0.36792 -1.45123,-0.58119 -4.14997,-0.66581 l -3.97059,-0.12452 0.01,-2.69025 c 0.0155,-4.93199 2.00184,-16.53854 3.65843,-21.37695 0.11595,-0.33862 1.86861,0.0388 5.4524,1.17393 2.90484,0.92014 5.36402,1.75546 5.46484,1.85627 0.1008,0.10082 -0.20562,1.71609 -0.68096,3.5895 -2.9668,11.69295 -2.97032,25.07987 -0.01,36.67567 0.48064,1.88249 0.81525,3.47028 0.7436,3.52842 -0.0716,0.0581 -2.52773,0.90155 -5.45792,1.87424 -3.7171,1.23391 -5.38138,1.61224 -5.50541,1.25152 l 0,0 z"
       id="path3055"
       inkscape:connector-curvature="0" />
    <path
       style="fill:#00ff00;stroke:#00ff00;stroke-width:0.43303978"
       d="m 216.65069,357.1522 c -4.8112,-3.7998 -14.74423,-14.29857 -14.74423,-15.58399 0,-0.13789 1.36407,-1.24283 3.03127,-2.45546 1.6672,-1.21262 3.03128,-2.38595 3.03128,-2.60743 0,-1.00989 -0.90576,-0.65535 -3.90269,1.52757 -1.77374,1.29199 -3.26583,2.34906 -3.31576,2.34906 -0.0499,0 -1.1594,-1.72757 -2.46549,-3.83903 -3.01645,-4.87643 -6.3398,-11.50471 -7.78594,-15.52871 l -1.12442,-3.12874 5.48146,-1.73346 c 3.01481,-0.9534 5.50123,-1.68901 5.52537,-1.63468 0.0242,0.0543 0.81479,2.04175 1.75698,4.41653 1.97978,4.98996 4.89071,10.25276 8.36829,15.12929 2.48413,3.48344 9.87409,11.30613 13.57714,14.37216 l 2.04116,1.69003 -3.36349,4.59837 -3.36349,4.59836 -2.74744,-2.16987 z"
       id="path3057"
       inkscape:connector-curvature="0" />
    <path
       style="fill:#ffff00;stroke:#ffff00;stroke-width:0.43303978"
       d="m 339.32131,266.86615 c -2.65342,-7.68898 -5.89521,-13.69791 -11.14187,-20.6524 -2.80262,-3.7149 -10.04501,-11.10667 -12.56177,-12.82087 -0.85141,-0.5799 -1.54934,-1.21499 -1.55096,-1.41132 -0.006,-0.58651 6.20028,-8.95339 6.6401,-8.95339 1.28124,0 11.55243,9.77948 15.63421,14.88573 l 2.03366,2.5441 -3.27514,2.37379 c -2.89912,2.10125 -3.68986,3.14749 -2.37888,3.14749 0.22997,0 1.7287,-0.95748 3.33051,-2.12773 2.14633,-1.56808 3.0563,-2.00845 3.45961,-1.67422 2.05251,1.70105 10.92831,19.22173 10.92831,21.57233 0,0.27445 -4.13407,1.75613 -10.30108,3.69195 -0.30674,0.0963 -0.67425,-0.16268 -0.8167,-0.57546 z"
       id="path3061"
       inkscape:connector-curvature="0" />
    <path
       style="fill:#ffff00;stroke:#ffff00;stroke-width:0.43303978"
       d="m 312.16079,230.89686 c -0.44999,-0.7281 -8.27246,-5.15193 -12.17083,-6.88296 -8.21788,-3.64905 -18.58155,-6.18221 -25.29274,-6.18221 -4.11503,0 -3.93743,0.28043 -3.93756,-6.21715 l -1.2e-4,-5.69144 4.87181,0.2735 c 2.67951,0.1504 6.13846,0.49332 7.68658,0.76202 5.11661,0.88806 12.1251,2.79409 12.1251,3.29755 0,0.27236 -0.48717,1.92753 -1.08259,3.67817 -1.2653,3.72015 -1.28562,3.89735 -0.44702,3.89735 0.41886,0 1.02684,-1.25497 1.7832,-3.68083 0.6312,-2.02448 1.27525,-3.68084 1.43124,-3.68084 0.68943,0 7.19835,2.69995 10.4994,4.35522 3.99837,2.00495 10.55856,5.91194 11.16453,6.64916 0.24906,0.30299 -0.82269,2.13771 -3.00247,5.13996 -1.86439,2.56782 -3.49722,4.49495 -3.62853,4.2825 l 0,0 z"
       id="path3059"
       inkscape:connector-curvature="0" />
    <path
       style="fill:#ff0000;stroke:#ff0000;stroke-width:0.43303978"
       d="m 345.63497,314.69058 -5.45367,-1.80666 0.7914,-3.03127 c 3.0508,-11.68536 3.04969,-26.00093 -0.003,-37.70899 l -0.79933,-3.0658 5.02607,-1.64945 c 2.76433,-0.90719 5.24883,-1.7327 5.52112,-1.83447 1.01039,-0.37766 3.59361,12.25731 4.28995,20.98281 l 0.2851,3.57258 -4.15896,0 c -3.40814,0 -4.15894,0.11727 -4.15894,0.64957 0,0.5323 0.7509,0.64956 4.15984,0.64956 l 4.15985,0 -0.29834,4.00561 c -0.45975,6.1724 -0.99446,9.58919 -2.43974,15.58943 -0.73144,3.03669 -1.36091,5.50608 -1.39882,5.4875 -0.0379,-0.0186 -2.52306,-0.84675 -5.5226,-1.84042 l 0,0 z"
       id="path3063"
       inkscape:connector-curvature="0" />
    <path
       style="fill:#ff0000;stroke:#ff0000;stroke-width:0.43303978"
       d="m 317.19824,354.66759 c -1.72396,-2.38429 -3.13448,-4.4948 -3.13448,-4.69003 0,-0.19522 0.86381,-0.9753 1.91957,-1.73349 2.83241,-2.03408 9.47268,-8.81531 12.32132,-12.58284 4.34789,-5.75043 9.65639,-15.51711 10.67598,-19.64186 0.16246,-0.65723 0.44264,-1.28597 0.62267,-1.39723 0.3031,-0.18732 10.30103,2.99566 10.71739,3.41204 0.63239,0.63238 -4.71319,12.32023 -8.22852,17.99121 -2.9772,4.80291 -2.54278,4.66377 -6.17491,1.9777 -2.49989,-1.84875 -3.26195,-2.22168 -3.63108,-1.7769 -0.36055,0.43445 0.26889,1.08934 2.75815,2.86958 1.77394,1.26866 3.10765,2.51551 2.96381,2.77076 -2.00814,3.5637 -15.76681,17.13613 -17.37127,17.13613 -0.16727,0 -1.71464,-1.95078 -3.43863,-4.33507 z"
       id="path3065"
       inkscape:connector-curvature="0" />
    <path
       sodipodi:type="arc"
       style="fill:none;stroke:#000000"
       id="path3030"
       sodipodi:cx="270"
       sodipodi:cy="292.36218"
       sodipodi:rx="85"
       sodipodi:ry="85"
       d="m 355,292.36218 c 0,46.94421 -38.0558,85 -85,85 -46.9442,0 -85,-38.05579 -85,-85 0,-46.9442 38.0558,-85 85,-85 8.766,0 17.47925,1.356 25.83068,4.01991"
       sodipodi:start="0"
       sodipodi:end="5.0211625"
       sodipodi:open="true"
       transform="matrix(-0.50433818,0.69416194,-0.69416194,-0.50433818,609.118,251.47907)" />
    <path
       sodipodi:type="arc"
       style="fill:none;stroke:#000000"
       id="path3038"
       sodipodi:cx="270"
       sodipodi:cy="292.36218"
       sodipodi:rx="85"
       sodipodi:ry="85"
       d="m 355,292.36218 c 0,46.94421 -38.0558,85 -85,85 -46.9442,0 -85,-38.05579 -85,-85 0,-46.9442 38.0558,-85 85,-85 8.766,0 17.47925,1.356 25.83068,4.01991"
       sodipodi:start="0"
       sodipodi:end="5.0211625"
       sodipodi:open="true"
       transform="matrix(-0.5893764,0.81120702,-0.81120702,-0.5893764,666.29788,244.19886)" />
  </g>
</svg>
