<?xml version="1.0" encoding="UTF-8" standalone="no"?>
<!-- Created with Inkscape (http://www.inkscape.org/) -->

<svg
   xmlns:dc="http://purl.org/dc/elements/1.1/"
   xmlns:cc="http://creativecommons.org/ns#"
   xmlns:rdf="http://www.w3.org/1999/02/22-rdf-syntax-ns#"
   xmlns:svg="http://www.w3.org/2000/svg"
   xmlns="http://www.w3.org/2000/svg"
   xmlns:sodipodi="http://sodipodi.sourceforge.net/DTD/sodipodi-0.dtd"
   xmlns:inkscape="http://www.inkscape.org/namespaces/inkscape"
   width="201"
   height="182.01407"
   id="svg2"
   version="1.1"
   inkscape:version="0.48.2 r9819"
   sodipodi:docname="rotation-v2.svg">
  <defs
     id="defs4" />
  <sodipodi:namedview
     id="base"
     pagecolor="#ffffff"
     bordercolor="#666666"
     borderopacity="1.0"
     inkscape:pageopacity="0.0"
     inkscape:pageshadow="2"
     inkscape:zoom="0.99030803"
     inkscape:cx="-69.874311"
     inkscape:cy="15.207231"
     inkscape:document-units="px"
     inkscape:current-layer="layer1"
     showgrid="true"
     inkscape:snap-global="true"
     inkscape:object-paths="true"
     inkscape:snap-bbox="true"
     inkscape:window-width="1280"
     inkscape:window-height="938"
     inkscape:window-x="-4"
     inkscape:window-y="-4"
     inkscape:window-maximized="1"
     width="651.5px"
     fit-margin-top="0"
     fit-margin-left="0"
     fit-margin-right="0"
     fit-margin-bottom="0">
    <inkscape:grid
       type="xygrid"
       id="grid3764"
       empspacing="5"
       visible="true"
       enabled="true"
       snapvisiblegridlinesonly="true" />
  </sodipodi:namedview>
  <metadata
     id="metadata7">
    <rdf:RDF>
      <cc:Work
         rdf:about="">
        <dc:format>image/svg+xml</dc:format>
        <dc:type
           rdf:resource="http://purl.org/dc/dcmitype/StillImage" />
        <dc:title></dc:title>
      </cc:Work>
    </rdf:RDF>
  </metadata>
  <g
     inkscape:label="Layer 1"
     inkscape:groupmode="layer"
     id="layer1"
     transform="translate(-169.5,-191.74981)">
    <path
       style="fill:none;stroke:#000000;stroke-width:1.22474504px;stroke-linecap:butt;stroke-linejoin:miter;stroke-opacity:1;display:inline"
       d="m 270,192.36218 0,15"
       id="path3802"
       inkscape:connector-type="polyline"
       inkscape:connector-curvature="3" />
    <path
       inkscape:connector-curvature="3"
       inkscape:connector-type="polyline"
       id="path2999"
       d="m 319.84938,361.01626 8.81678,12.13524"
       style="fill:none;stroke:#000000;stroke-width:1.22474504px;stroke-linecap:butt;stroke-linejoin:miter;stroke-opacity:1;display:inline" />
    <path
       inkscape:connector-curvature="3"
       inkscape:connector-type="polyline"
       id="path3003"
       d="m 175.00672,261.57287 14.26584,4.63524"
       style="fill:none;stroke:#000000;stroke-width:1.22474504px;stroke-linecap:butt;stroke-linejoin:miter;stroke-opacity:1;display:inline" />
    <path
       style="fill:none;stroke:#000000;stroke-width:1.22474504px;stroke-linecap:butt;stroke-linejoin:miter;stroke-opacity:1;display:inline"
       d="m 211.33384,211.57286 8.81678,12.13524"
       id="path3007"
       inkscape:connector-type="polyline"
       inkscape:connector-curvature="3" />
    <path
       inkscape:connector-curvature="3"
       inkscape:connector-type="polyline"
       id="path3009"
       d="m 350.72744,318.51625 14.26584,4.63524"
       style="fill:none;stroke:#000000;stroke-width:1.22474504px;stroke-linecap:butt;stroke-linejoin:miter;stroke-opacity:1;display:inline" />
    <path
       style="fill:none;stroke:#000000;stroke-width:1.22474504px;stroke-linecap:butt;stroke-linejoin:miter;stroke-opacity:1;display:inline"
       d="m 175.00672,323.15151 14.26582,-4.63526"
       id="path3011"
       inkscape:connector-type="polyline"
       inkscape:connector-curvature="3" />
    <path
       inkscape:connector-curvature="3"
       inkscape:connector-type="polyline"
       id="path3013"
       d="m 350.72746,266.20811 14.26582,-4.63526"
       style="fill:none;stroke:#000000;stroke-width:1.22474504px;stroke-linecap:butt;stroke-linejoin:miter;stroke-opacity:1;display:inline" />
    <path
       inkscape:connector-curvature="3"
       inkscape:connector-type="polyline"
       id="path3015"
       d="m 175.00672,323.15151 14.26582,-4.63526"
       style="fill:none;stroke:#000000;stroke-width:1.22474504px;stroke-linecap:butt;stroke-linejoin:miter;stroke-opacity:1;display:inline" />
    <path
       inkscape:connector-curvature="3"
       inkscape:connector-type="polyline"
       id="path3019"
       d="m 211.33385,373.15151 8.81674,-12.13524"
       style="fill:none;stroke:#000000;stroke-width:1.22474504px;stroke-linecap:butt;stroke-linejoin:miter;stroke-opacity:1;display:inline" />
    <path
       style="fill:none;stroke:#000000;stroke-width:1.22474504px;stroke-linecap:butt;stroke-linejoin:miter;stroke-opacity:1;display:inline"
       d="m 211.33385,373.15151 8.81674,-12.13524"
       id="path3021"
       inkscape:connector-type="polyline"
       inkscape:connector-curvature="3" />
    <path
       inkscape:connector-curvature="3"
       inkscape:connector-type="polyline"
       id="path3023"
       d="m 319.84941,223.70809 8.81674,-12.13524"
       style="fill:none;stroke:#000000;stroke-width:1.22474504px;stroke-linecap:butt;stroke-linejoin:miter;stroke-opacity:1;display:inline" />
    <path
       style="fill:none;stroke:#000000;stroke-width:1px;stroke-linecap:butt;stroke-linejoin:miter;stroke-opacity:1"
       d="m 242.18845,206.76709 -3.09016,-9.51056"
       id="path3025"
       inkscape:connector-type="polyline"
       inkscape:connector-curvature="0" />
    <path
       inkscape:connector-curvature="0"
       inkscape:connector-type="polyline"
       id="path3027"
       d="m 242.18845,206.76709 -3.09016,-9.51056"
       style="fill:none;stroke:#000000;stroke-width:1px;stroke-linecap:butt;stroke-linejoin:miter;stroke-opacity:1" />
    <path
       style="fill:none;stroke:#000000;stroke-width:1px;stroke-linecap:butt;stroke-linejoin:miter;stroke-opacity:1"
       d="m 197.18846,239.46151 -8.09016,-5.87784"
       id="path3029"
       inkscape:connector-type="polyline"
       inkscape:connector-curvature="0" />
    <path
       inkscape:connector-curvature="0"
       inkscape:connector-type="polyline"
       id="path3033"
       d="m 197.18846,345.26287 -8.09016,5.87784"
       style="fill:none;stroke:#000000;stroke-width:1px;stroke-linecap:butt;stroke-linejoin:miter;stroke-opacity:1" />
    <path
       style="fill:none;stroke:#000000;stroke-width:1px;stroke-linecap:butt;stroke-linejoin:miter;stroke-opacity:1"
       d="m 350.9017,351.14069 -8.09016,-5.87784"
       id="path3035"
       inkscape:connector-type="polyline"
       inkscape:connector-curvature="0" />
    <path
       inkscape:connector-curvature="0"
       inkscape:connector-type="polyline"
       id="path3039"
       d="m 350.9017,233.58365 -8.09016,5.87784"
       style="fill:none;stroke:#000000;stroke-width:1px;stroke-linecap:butt;stroke-linejoin:miter;stroke-opacity:1" />
    <path
       style="fill:none;stroke:#000000;stroke-width:1px;stroke-linecap:butt;stroke-linejoin:miter;stroke-opacity:1"
       d="m 300.90169,197.25653 -3.09016,9.51056"
       id="path3043"
       inkscape:connector-type="polyline"
       inkscape:connector-curvature="0" />
    <path
       style="fill:none;stroke:#000000;stroke-width:1px;stroke-linecap:butt;stroke-linejoin:miter;stroke-opacity:1"
       d="m 170,292.36218 10,0"
       id="path3045"
       inkscape:connector-type="polyline"
       inkscape:connector-curvature="0" />
    <path
       style="fill:none;stroke:#000000;stroke-width:1px;stroke-linecap:butt;stroke-linejoin:miter;stroke-opacity:1"
       d="m 370,292.36218 -10,0"
       id="path3047"
       inkscape:connector-type="polyline"
       inkscape:connector-curvature="0" />
    <path
       style="fill:#00ff00;stroke:#00ff00;stroke-width:0.50507629"
       d="m 216.59047,217.27997 c -1.94455,-2.6853 -3.6161,-5.08139 -3.71457,-5.32466 -0.23979,-0.59243 0.77962,-1.33084 6.81665,-4.93767 5.27826,-3.1535 15.66898,-7.92676 17.80231,-8.17798 1.09026,-0.12839 1.3375,0.24697 2.56783,3.89854 0.89095,2.64432 1.65217,4.09704 2.20284,4.20391 1.0569,0.20512 1.10779,0.56161 -0.67112,-4.70109 -0.83191,-2.46111 -1.45694,-4.52026 -1.38896,-4.57589 0.26058,-0.21324 13.36769,-3.20806 15.52843,-3.54806 1.25006,-0.1967 4.82985,-0.49662 7.95508,-0.66648 l 5.68224,-0.30884 -1.3e-4,6.68264 c -1.5e-4,7.74765 0.70538,6.98301 -6.81866,7.38986 -12.29172,0.66464 -27.26429,5.65601 -38.27528,12.75974 -1.88376,1.2153 -3.58839,2.20485 -3.78807,2.19899 -0.19968,-0.006 -1.95405,-2.20772 -3.89859,-4.89301 z"
       id="path3051"
       inkscape:connector-curvature="0" />
    <path
       style="fill:#00ff00;stroke:#00ff00;stroke-width:0.50507629"
       d="m 182.28195,263.03811 c -3.31333,-1.08594 -6.09217,-2.04237 -6.1752,-2.1254 -0.66562,-0.66562 5.89327,-14.66497 9.80231,-20.92214 3.62415,-5.80115 3.06621,-5.64184 7.66539,-2.18868 2.70408,2.03029 4.07566,2.55073 4.07566,1.54651 0,-0.2821 -1.59099,-1.67373 -3.53554,-3.09252 -1.94454,-1.41878 -3.53553,-2.70149 -3.53553,-2.85046 0,-1.53489 12.03839,-14.2138 17.43071,-18.35815 l 3.03605,-2.3334 3.90427,5.36623 3.90428,5.36622 -2.1421,1.75921 c -11.48188,9.42954 -21.2897,22.61281 -26.0203,34.97542 -1.03437,2.70315 -1.99432,4.8961 -2.13322,4.87321 -0.13889,-0.0229 -2.96344,-0.9301 -6.27678,-2.01605 l 0,0 z"
       id="path3053"
       inkscape:connector-curvature="0" />
    <path
       style="fill:#00ff00;stroke:#00ff00;stroke-width:0.50507629"
       d="m 175.16598,321.52907 c -1.9755,-5.74569 -4.25766,-19.2119 -4.27506,-25.22549 l -0.01,-3.40927 4.84032,0 c 3.64711,0 4.78874,-0.15563 4.6311,-0.63134 -0.1422,-0.42912 -1.69264,-0.67787 -4.84032,-0.77657 l -4.6311,-0.14522 0.01,-3.13778 c 0.0181,-5.75243 2.33484,-19.28974 4.26701,-24.93303 0.13523,-0.39495 2.17946,0.0452 6.35941,1.36922 3.38807,1.07321 6.25633,2.04748 6.37391,2.16506 0.11758,0.11759 -0.23982,2.00156 -0.79423,4.18662 -3.46033,13.63807 -3.46443,29.25192 -0.0112,42.7767 0.56059,2.19563 0.95088,4.04755 0.86731,4.11536 -0.0836,0.0678 -2.94822,1.05153 -6.36586,2.18603 -4.33545,1.43917 -6.27658,1.88044 -6.42124,1.45971 l 0,0 z"
       id="path3055"
       inkscape:connector-curvature="0" />
    <path
       style="fill:#00ff00;stroke:#00ff00;stroke-width:0.50507629"
       d="m 207.77599,369.52793 c -5.61155,-4.4319 -17.19695,-16.67715 -17.19695,-18.17641 0,-0.16082 1.59099,-1.44958 3.53553,-2.86392 1.94455,-1.41434 3.53554,-2.78287 3.53554,-3.04117 0,-1.17788 -1.05644,-0.76438 -4.5519,1.78168 -2.06881,1.5069 -3.80912,2.73982 -3.86735,2.73982 -0.0582,0 -1.35227,-2.01494 -2.87563,-4.47765 -3.51823,-5.68763 -7.39442,-13.41852 -9.08114,-18.11192 l -1.31147,-3.64922 6.39332,-2.02182 c 3.51632,-1.112 6.41635,-1.96998 6.44451,-1.90662 0.0282,0.0634 0.95033,2.38141 2.04926,5.15123 2.30911,5.82005 5.70429,11.95832 9.76036,17.64606 2.89736,4.06291 11.51666,13.18691 15.83572,16.76299 l 2.38071,1.97117 -3.92302,5.3633 -3.92302,5.36331 -3.20447,-2.53083 z"
       id="path3057"
       inkscape:connector-curvature="0" />
    <path
       style="fill:#ffff00;stroke:#ffff00;stroke-width:0.50507629"
       d="m 350.85297,264.22272 c -3.09482,-8.96805 -6.87589,-15.97657 -12.99533,-24.08794 -3.26884,-4.33288 -11.71601,-12.95428 -14.65144,-14.95363 -0.99303,-0.67636 -1.80706,-1.41711 -1.80896,-1.6461 -0.006,-0.68407 7.2317,-10.44279 7.74469,-10.44279 1.49436,0 13.47419,11.4063 18.23497,17.36198 l 2.37196,2.9673 -3.81997,2.76869 c -3.38137,2.45079 -4.30366,3.67107 -2.7746,3.67107 0.26823,0 2.01627,-1.11676 3.88454,-2.48168 2.50337,-1.82893 3.56473,-2.34255 4.03512,-1.95272 2.39396,1.98402 12.74625,22.41928 12.74625,25.1609 0,0.32011 -4.82179,2.04826 -12.01468,4.3061 -0.35776,0.11231 -0.7864,-0.18973 -0.95255,-0.67118 z"
       id="path3061"
       inkscape:connector-curvature="0" />
    <path
       style="fill:#ffff00;stroke:#ffff00;stroke-width:0.50507629"
       d="m 319.17427,222.26991 c -0.52484,-0.84922 -9.64859,-6.00896 -14.19546,-8.02794 -9.58493,-4.25608 -21.67261,-7.21063 -29.50021,-7.21063 -4.79957,0 -4.59242,0.32708 -4.59257,-7.25137 l -1.3e-4,-6.63822 5.68224,0.31898 c 3.12523,0.17544 7.15959,0.5754 8.96524,0.88879 5.96776,1.03579 14.14213,3.2589 14.14213,3.84611 0,0.31766 -0.56821,2.24817 -1.26269,4.29003 -1.47579,4.339 -1.49949,4.54568 -0.52139,4.54568 0.48855,0 1.19766,-1.46373 2.07983,-4.29314 0.7362,-2.36124 1.4874,-4.29315 1.66934,-4.29315 0.80412,0 8.3958,3.14908 12.24598,5.07972 4.6635,2.33847 12.31499,6.8954 13.02177,7.75525 0.29048,0.35339 -0.95955,2.49331 -3.50195,5.99499 -2.17453,2.99498 -4.07898,5.24269 -4.23213,4.9949 l 0,0 z"
       id="path3059"
       inkscape:connector-curvature="0" />
    <path
       style="fill:#ff0000;stroke:#ff0000;stroke-width:0.50507629"
       d="m 358.21691,320.00278 -6.3609,-2.10719 0.92306,-3.53554 c 3.55829,-13.62922 3.557,-30.3262 -0.003,-43.98191 l -0.93231,-3.5758 5.86216,-1.92383 c 3.22419,-1.0581 6.12199,-2.02093 6.43956,-2.13963 1.17848,-0.44049 4.19143,14.29632 5.00359,24.47332 l 0.33253,4.16688 -4.8508,0 c -3.9751,0 -4.85079,0.13677 -4.85079,0.75762 0,0.62085 0.87581,0.75761 4.85184,0.75761 l 4.85185,0 -0.34798,4.67196 c -0.53622,7.19918 -1.1599,11.18435 -2.84559,18.18274 -0.85312,3.54185 -1.5873,6.42201 -1.63151,6.40035 -0.0442,-0.0217 -2.94279,-0.98762 -6.44129,-2.14658 l 0,0 z"
       id="path3063"
       inkscape:connector-curvature="0" />
    <path
       style="fill:#ff0000;stroke:#ff0000;stroke-width:0.50507629"
       d="m 325.04971,366.63 c -2.01075,-2.78092 -3.65592,-5.24251 -3.65592,-5.47022 0,-0.2277 1.00751,-1.13754 2.2389,-2.02186 3.30358,-2.37245 11.04848,-10.28174 14.37098,-14.67601 5.07116,-6.70701 11.26274,-18.09839 12.45194,-22.90929 0.18948,-0.76656 0.51629,-1.4999 0.72625,-1.62966 0.35352,-0.21849 12.01461,3.49399 12.50024,3.97963 0.73759,0.73758 -5.49724,14.36971 -9.59733,20.98407 -3.47247,5.60187 -2.96579,5.43959 -7.20212,2.30668 -2.91574,-2.15629 -3.80458,-2.59125 -4.23511,-2.07248 -0.42054,0.50672 0.31362,1.27055 3.21697,3.34694 2.06903,1.4797 3.62461,2.93396 3.45684,3.23167 -2.3422,4.15653 -18.38963,19.98674 -20.26099,19.98674 -0.1951,0 -1.99989,-2.27529 -4.01065,-5.05621 z"
       id="path3065"
       inkscape:connector-curvature="0" />
    <path
       sodipodi:type="arc"
       style="fill:none;stroke:#000000"
       id="path3030"
       sodipodi:cx="270"
       sodipodi:cy="292.36218"
       sodipodi:rx="85"
       sodipodi:ry="85"
       d="m 355,292.36218 c 0,46.94421 -38.0558,85 -85,85 -46.9442,0 -85,-38.05579 -85,-85 0,-46.9442 38.0558,-85 85,-85 8.766,0 17.47925,1.356 25.83068,4.01991"
       sodipodi:start="0"
       sodipodi:end="5.0211625"
       sodipodi:open="true"
       transform="matrix(-0.58823522,0.80963633,-0.80963633,-0.58823522,665.53055,246.27599)" />
    <path
       sodipodi:type="arc"
       style="fill:none;stroke:#000000"
       id="path3038"
       sodipodi:cx="270"
       sodipodi:cy="292.36218"
       sodipodi:rx="85"
       sodipodi:ry="85"
       d="m 355,292.36218 c 0,46.94421 -38.0558,85 -85,85 -46.9442,0 -85,-38.05579 -85,-85 0,-46.9442 38.0558,-85 85,-85 8.766,0 17.47925,1.356 25.83068,4.01991"
       sodipodi:start="0"
       sodipodi:end="5.0211625"
       sodipodi:open="true"
       transform="matrix(-0.68741962,0.94615195,-0.94615195,-0.68741962,732.22234,237.7847)" />
  </g>
</svg>
